<svg width="160" height="42" viewBox="0 0 160 42" fill="none" xmlns="http://www.w3.org/2000/svg">
<path fill-rule="evenodd" clip-rule="evenodd" d="M99.1777 39.9628V11.4908L111.342 39.9628H119.932L132.22 11.2005H122.868L115.746 28.8167L108.623 11.2005H99.1777V0L90.3696 1.90299V39.9628H99.1777ZM27.6749 36.1568C25.8626 37.6792 23.9958 38.7848 22.0747 39.4735C20.1898 40.1622 18.0512 40.5065 15.6589 40.5065C13.4841 40.5065 11.4361 40.1259 9.51496 39.3647C7.59384 38.6035 5.92646 37.5524 4.51281 36.2112C3.13541 34.8701 2.02986 33.2933 1.19617 31.4809C0.398722 29.6323 0 27.6749 0 25.6088C0 23.5427 0.380598 21.6035 1.1418 19.7911C1.93924 17.9425 3.00854 16.3476 4.3497 15.0064C5.69085 13.6653 7.26762 12.6141 9.07999 11.8529C10.9286 11.0917 12.9041 10.7111 15.0065 10.7111C17.1088 10.7111 19.048 11.1098 20.8242 11.9073C22.6003 12.7047 24.1227 13.7922 25.3913 15.1696C26.6963 16.547 27.7112 18.2143 28.4361 20.1717C29.1611 22.0928 29.5236 24.1771 29.5236 26.4244V28.5992H9.02562C9.60558 29.9404 10.5118 31.046 11.7442 31.9159C12.9766 32.7496 14.4265 33.1664 16.0939 33.1664C17.29 33.1664 18.3775 32.9852 19.3561 32.6227C20.3348 32.224 21.1685 31.6803 21.8572 30.9916L27.6749 36.1568ZM14.8433 17.8881C13.3934 17.8881 12.1429 18.2868 11.0917 19.0843C10.0405 19.8817 9.29747 21.0054 8.8625 22.4553H20.8785C20.4073 21.0779 19.628 19.9724 18.5406 19.1387C17.4894 18.305 16.257 17.8881 14.8433 17.8881ZM39.321 39.9628L27.0331 11.2005H36.6024L43.7251 28.8167L50.8477 11.2005H60.1995L47.9116 39.9628H39.321ZM151.843 39.4735C153.765 38.7848 155.631 37.6792 157.444 36.1568L151.626 30.9916C150.937 31.6803 150.104 32.224 149.125 32.6227C148.146 32.9852 147.059 33.1664 145.863 33.1664C144.195 33.1664 142.745 32.7496 141.513 31.9159C140.281 31.046 139.374 29.9404 138.794 28.5992H159.292V26.4244C159.292 24.1771 158.93 22.0928 158.205 20.1717C157.48 18.2143 156.465 16.547 155.16 15.1696C153.891 13.7922 152.369 12.7047 150.593 11.9073C148.817 11.1098 146.878 10.7111 144.775 10.7111C142.673 10.7111 140.697 11.0917 138.849 11.8529C137.036 12.6141 135.46 13.6653 134.118 15.0064C132.777 16.3476 131.708 17.9425 130.911 19.7911C130.149 21.6035 129.769 23.5427 129.769 25.6088C129.769 27.6749 130.167 29.6323 130.965 31.4809C131.799 33.2933 132.904 34.8701 134.282 36.2112C135.695 37.5524 137.363 38.6035 139.284 39.3647C141.205 40.1259 143.253 40.5065 145.428 40.5065C147.82 40.5065 149.959 40.1622 151.843 39.4735ZM140.86 19.0843C141.912 18.2868 143.162 17.8881 144.612 17.8881C146.026 17.8881 147.258 18.305 148.309 19.1387C149.397 19.9724 150.176 21.0779 150.647 22.4553H138.631C139.066 21.0054 139.809 19.8817 140.86 19.0843ZM89 26C89 34.8366 81.8366 42 73 42C71.3965 42 69.8482 41.7641 68.3877 41.3252C70.0735 38.5391 71.602 35.6299 73.0449 32.6436C73.8833 30.9085 74.7702 28.8644 75.4021 27.4081L75.4022 27.4079L75.4346 27.3333C76.0872 29.4048 76.5511 32.069 76.8137 34.5518L81.9346 34.0103C81.5253 30.1402 80.4421 26.5102 79.4837 23.8815C79.0014 22.5585 78.5431 21.4686 78.2026 20.7038C78.0321 20.321 77.8907 20.0185 77.7899 19.8077C77.7394 19.7022 77.6991 19.6196 77.6703 19.5613C77.6544 19.5291 77.6384 19.4969 77.6222 19.4648L76.4605 17.1773L74.1716 18.324L74.171 18.3243L74.1641 18.3277L74.1233 18.3478C74.085 18.3665 74.0247 18.3958 73.9434 18.4346C73.7809 18.5122 73.535 18.6276 73.2147 18.7722C72.5734 19.0616 71.6363 19.467 70.4743 19.9201C68.1424 20.8294 65.1527 21.9388 61.6438 22.6746L62.4907 27.6917C65.5506 27.05 68.6288 26.0711 70.9128 25.2494C70.2881 26.6947 69.1105 28.854 68.1724 30.4713C66.7253 32.9662 64.9053 35.7141 62.9262 38.4312C59.3107 35.4977 57 31.0187 57 26C57 17.1634 64.1634 10 73 10C81.8366 10 89 17.1634 89 26Z" fill="white"/>
</svg>
